<mxfile host="app.diagrams.net" modified="2023-09-10T15:24:12.117Z" agent="Mozilla/5.0 (Windows NT 10.0; Win64; x64) AppleWebKit/537.36 (KHTML, like Gecko) Chrome/116.0.0.0 Safari/537.36 Edg/116.0.1938.76" version="21.6.2" etag="3L0Xy7jPj0dWakqAlA0F" type="github">
  <diagram name="Page-1" id="BlyrRpKVWv49DO61rmeD">
    <mxGraphModel>
      <root>
        <mxCell id="0" />
        <mxCell id="1" parent="0" />
      </root>
    </mxGraphModel>
  </diagram>
</mxfile>
